<svg height="250" viewBox="0 0 1500 250" width="1500" xmlns="http://www.w3.org/2000/svg" xmlns:xlink="http://www.w3.org/1999/xlink"><linearGradient id="a" gradientUnits="userSpaceOnUse" x1="0" x2="1500" y1="125" y2="125"><stop offset="0" stop-color="#6d6e71"/><stop offset=".076" stop-color="#c4c6c8"/><stop offset=".441" stop-color="#5a5b5d"/><stop offset=".593" stop-color="#95979a"/><stop offset=".809" stop-color="#dadbdc"/><stop offset="1" stop-color="#4d4d4f"/></linearGradient><linearGradient id="b"><stop offset="0" stop-color="#636466"/><stop offset=".117" stop-color="#cdcfd0"/><stop offset=".441" stop-color="#67686b"/><stop offset=".593" stop-color="#a1a3a6"/><stop offset=".809" stop-color="#e6e7e8"/><stop offset="1" stop-color="#58595b"/></linearGradient><linearGradient id="c" gradientUnits="userSpaceOnUse" x1="-13.548" x2="1514.642" xlink:href="#b" y1="233.234" y2="233.234"/><linearGradient id="d" gradientUnits="userSpaceOnUse" x1="-13.548" x2="1514.642" xlink:href="#b" y1="231.58" y2="231.58"/><linearGradient id="e" gradientUnits="userSpaceOnUse" x1="-13.548" x2="1514.642" xlink:href="#b" y1="230.78" y2="230.78"/><linearGradient id="f" gradientUnits="userSpaceOnUse" x1="-13.548" x2="1514.642" xlink:href="#b" y1="225.606" y2="225.606"/><linearGradient id="g" gradientUnits="userSpaceOnUse" x1="-13.544" x2="1514.646" xlink:href="#b" y1="226.738" y2="226.738"/><linearGradient id="h" gradientUnits="userSpaceOnUse" x1="-13.548" x2="1514.642" xlink:href="#b" y1="222.904" y2="222.904"/><linearGradient id="i" gradientUnits="userSpaceOnUse" x1="-13.548" x2="1514.642" xlink:href="#b" y1="238.954" y2="238.954"/><linearGradient id="j" gradientUnits="userSpaceOnUse" x1="-13.55" x2="1514.64" xlink:href="#b" y1="235.448" y2="235.448"/><linearGradient id="k" gradientUnits="userSpaceOnUse" x1="-13.548" x2="1514.642" xlink:href="#b" y1="236.85" y2="236.85"/><linearGradient id="l" gradientUnits="userSpaceOnUse" x1="-13.548" x2="1514.632" xlink:href="#b" y1="238.964" y2="238.964"/><linearGradient id="m" gradientUnits="userSpaceOnUse" x1="-13.548" x2="1514.642" xlink:href="#b" y1="198.89" y2="198.89"/><linearGradient id="n" gradientUnits="userSpaceOnUse" x1="-13.547" x2="1514.643" xlink:href="#b" y1="191.742" y2="191.742"/><linearGradient id="o" gradientUnits="userSpaceOnUse" x1="-13.548" x2="1514.633" xlink:href="#b" y1="199.867" y2="199.867"/><linearGradient id="p" gradientUnits="userSpaceOnUse" x1="-13.548" x2="1514.642" xlink:href="#b" y1="194.472" y2="194.472"/><linearGradient id="q" gradientUnits="userSpaceOnUse" x1="-13.548" x2="1514.642" xlink:href="#b" y1="189.149" y2="189.149"/><linearGradient id="r" gradientUnits="userSpaceOnUse" x1="-13.546" x2="1514.644" xlink:href="#b" y1="220.384" y2="220.384"/><linearGradient id="s" gradientUnits="userSpaceOnUse" x1="-13.546" x2="1514.644" xlink:href="#b" y1="190.863" y2="190.863"/><linearGradient id="t" gradientUnits="userSpaceOnUse" x1="-13.548" x2="1514.642" xlink:href="#b" y1="195.881" y2="195.881"/><linearGradient id="u" gradientUnits="userSpaceOnUse" x1="-13.548" x2="1514.642" xlink:href="#b" y1="187.224" y2="187.224"/><linearGradient id="v" gradientUnits="userSpaceOnUse" x1="-13.547" x2="1514.643" xlink:href="#b" y1="218.238" y2="218.238"/><linearGradient id="w" gradientUnits="userSpaceOnUse" x1="-13.548" x2="1514.652" xlink:href="#b" y1="215.329" y2="215.329"/><linearGradient id="x" gradientUnits="userSpaceOnUse" x1="-13.548" x2="1514.642" xlink:href="#b" y1="196.399" y2="196.399"/><linearGradient id="y" gradientUnits="userSpaceOnUse" x1="-13.548" x2="1514.642" xlink:href="#b" y1="205.045" y2="205.045"/><linearGradient id="z" gradientUnits="userSpaceOnUse" x1="-13.548" x2="1514.642" xlink:href="#b" y1="213.885" y2="213.885"/><linearGradient id="A" gradientUnits="userSpaceOnUse" x1="-13.548" x2="1514.642" xlink:href="#b" y1="211.582" y2="211.582"/><linearGradient id="B" gradientUnits="userSpaceOnUse" x1="-13.548" x2="1514.642" xlink:href="#b" y1="218.74" y2="218.74"/><linearGradient id="C" gradientUnits="userSpaceOnUse" x1="-13.548" x2="1514.642" xlink:href="#b" y1="89.794" y2="89.794"/><linearGradient id="D" gradientUnits="userSpaceOnUse" x1="-13.548" x2="1514.642" xlink:href="#b" y1="72.304" y2="72.304"/><linearGradient id="E" gradientUnits="userSpaceOnUse" x1="-13.548" x2="1514.642" xlink:href="#b" y1="61.28" y2="61.28"/><linearGradient id="F" gradientUnits="userSpaceOnUse" x1="-13.548" x2="1514.642" xlink:href="#b" y1="121.536" y2="121.536"/><linearGradient id="G" gradientUnits="userSpaceOnUse" x1="-13.548" x2="1514.642" xlink:href="#b" y1="118.267" y2="118.267"/><linearGradient id="H" gradientUnits="userSpaceOnUse" x1="-13.548" x2="1514.642" xlink:href="#b" y1="97.652" y2="97.652"/><linearGradient id="I" gradientUnits="userSpaceOnUse" x1="-13.548" x2="1514.642" xlink:href="#b" y1="105.485" y2="105.485"/><linearGradient id="J" gradientUnits="userSpaceOnUse" x1="-13.548" x2="1514.642" xlink:href="#b" y1="65.862" y2="65.862"/><linearGradient id="K" gradientUnits="userSpaceOnUse" x1="-13.547" x2="1514.643" xlink:href="#b" y1="54.031" y2="54.031"/><linearGradient id="L" gradientUnits="userSpaceOnUse" x1="-13.548" x2="1514.642" xlink:href="#b" y1="38.848" y2="38.848"/><linearGradient id="M" gradientUnits="userSpaceOnUse" x1="-13.548" x2="1514.642" xlink:href="#b" y1="8.936" y2="8.936"/><linearGradient id="N" gradientUnits="userSpaceOnUse" x1="-13.548" x2="1514.642" xlink:href="#b" y1="27.524" y2="27.524"/><linearGradient id="O" gradientUnits="userSpaceOnUse" x1="-13.547" x2="1514.643" xlink:href="#b" y1="45.385" y2="45.385"/><linearGradient id="P" gradientUnits="userSpaceOnUse" x1="-13.509" x2="1514.611" xlink:href="#b" y1="49.106" y2="49.106"/><linearGradient id="Q" gradientUnits="userSpaceOnUse" x1="-13.548" x2="1514.642" xlink:href="#b" y1="45.231" y2="45.231"/><linearGradient id="R" gradientUnits="userSpaceOnUse" x1="-13.548" x2="1514.642" xlink:href="#b" y1="201.226" y2="201.226"/><linearGradient id="S" gradientUnits="userSpaceOnUse" x1="-13.546" x2="1514.644" xlink:href="#b" y1="201.325" y2="201.325"/><linearGradient id="T" gradientUnits="userSpaceOnUse" x1="-13.548" x2="1514.642" xlink:href="#b" y1="184.568" y2="184.568"/><linearGradient id="U" gradientUnits="userSpaceOnUse" x1="-13.548" x2="1514.642" xlink:href="#b" y1="205.198" y2="205.198"/><linearGradient id="V" gradientUnits="userSpaceOnUse" x1="-13.548" x2="1514.642" xlink:href="#b" y1="178.127" y2="178.127"/><linearGradient id="W" gradientUnits="userSpaceOnUse" x1="-13.548" x2="1514.642" xlink:href="#b" y1="228.483" y2="228.483"/><linearGradient id="X" gradientUnits="userSpaceOnUse" x1="-13.55" x2="1514.64" xlink:href="#b" y1="130.731" y2="130.731"/><linearGradient id="Y" gradientUnits="userSpaceOnUse" x1="-13.548" x2="1514.642" xlink:href="#b" y1="129.4" y2="129.4"/><linearGradient id="Z" gradientUnits="userSpaceOnUse" x1="-13.548" x2="1514.642" xlink:href="#b" y1="128.894" y2="128.894"/><linearGradient id="aa" gradientUnits="userSpaceOnUse" x1="-13.548" x2="1514.642" xlink:href="#b" y1="169.346" y2="169.346"/><linearGradient id="ab" gradientUnits="userSpaceOnUse" x1="-13.548" x2="1514.642" xlink:href="#b" y1="132.163" y2="132.163"/><linearGradient id="ac" gradientUnits="userSpaceOnUse" x1="-13.548" x2="1514.642" xlink:href="#b" y1="156.154" y2="156.154"/><linearGradient id="ad" gradientUnits="userSpaceOnUse" x1="-13.548" x2="1514.642" xlink:href="#b" y1="135.15" y2="135.15"/><linearGradient id="ae" gradientUnits="userSpaceOnUse" x1="-13.548" x2="1514.642" xlink:href="#b" y1="144.945" y2="144.945"/><linearGradient id="af" gradientUnits="userSpaceOnUse" x1="-13.545" x2="1514.645" xlink:href="#b" y1="49.204" y2="49.204"/><linearGradient id="ag" gradientUnits="userSpaceOnUse" x1="-13.548" x2="1514.642" xlink:href="#b" y1="36.542" y2="36.542"/><linearGradient id="ah" gradientUnits="userSpaceOnUse" x1="-13.552" x2="1514.648" xlink:href="#b" y1="49.105" y2="49.105"/><linearGradient id="ai" gradientUnits="userSpaceOnUse" x1="-13.548" x2="1514.642" xlink:href="#b" y1="74.674" y2="74.674"/><linearGradient id="aj" gradientUnits="userSpaceOnUse" x1="-13.551" x2="1514.639" xlink:href="#b" y1="50.563" y2="50.563"/><linearGradient id="ak" gradientUnits="userSpaceOnUse" x1="-13.548" x2="1514.642" xlink:href="#b" y1="35.101" y2="35.101"/><linearGradient id="al" gradientUnits="userSpaceOnUse" x1="-13.548" x2="1514.642" xlink:href="#b" y1="31.69" y2="31.69"/><linearGradient id="am" gradientUnits="userSpaceOnUse" x1="-13.547" x2="1514.643" xlink:href="#b" y1="69.096" y2="69.096"/><linearGradient id="an" gradientUnits="userSpaceOnUse" x1="-13.547" x2="1514.643" xlink:href="#b" y1="54.548" y2="54.548"/><linearGradient id="ao" gradientUnits="userSpaceOnUse" x1="-13.547" x2="1514.643" xlink:href="#b" y1="55.957" y2="55.957"/><linearGradient id="ap" gradientUnits="userSpaceOnUse" x1="-13.548" x2="1514.642" xlink:href="#b" y1="32.191" y2="32.191"/><linearGradient id="aq" gradientUnits="userSpaceOnUse" x1="-13.548" x2="1514.642" xlink:href="#b" y1="63.205" y2="63.205"/><linearGradient id="ar" gradientUnits="userSpaceOnUse" x1="-13.548" x2="1514.642" xlink:href="#b" y1="51.54" y2="51.54"/><linearGradient id="as" gradientUnits="userSpaceOnUse" x1="-13.548" x2="1514.642" xlink:href="#b" y1="58.688" y2="58.688"/><linearGradient id="at" gradientUnits="userSpaceOnUse" x1="-13.548" x2="1514.642" xlink:href="#b" y1="59.568" y2="59.568"/><linearGradient id="au" gradientUnits="userSpaceOnUse" x1="-13.548" x2="1514.642" xlink:href="#b" y1="30.046" y2="30.046"/><linearGradient id="av" gradientUnits="userSpaceOnUse" x1="-13.548" x2="1514.642" xlink:href="#b" y1="11.465" y2="11.465"/><linearGradient id="aw" gradientUnits="userSpaceOnUse" x1="-13.548" x2="1514.642" xlink:href="#b" y1="8.061" y2="8.061"/><linearGradient id="ax" gradientUnits="userSpaceOnUse" x1="-13.548" x2="1514.642" xlink:href="#b" y1="9.431" y2="9.431"/><linearGradient id="ay" gradientUnits="userSpaceOnUse" x1="-13.547" x2="1514.643" xlink:href="#b" y1="11.476" y2="11.476"/><linearGradient id="az" gradientUnits="userSpaceOnUse" x1="-13.549" x2="1514.641" xlink:href="#b" y1="3.058" y2="3.058"/><linearGradient id="aA" gradientUnits="userSpaceOnUse" x1="-13.548" x2="1514.642" xlink:href="#b" y1=".759" y2=".759"/><linearGradient id="aB" gradientUnits="userSpaceOnUse" x1="-13.548" x2="1514.642" xlink:href="#b" y1="24.823" y2="24.823"/><linearGradient id="aC" gradientUnits="userSpaceOnUse" x1="-13.548" x2="1514.642" xlink:href="#b" y1="5.234" y2="5.234"/><linearGradient id="aD" gradientUnits="userSpaceOnUse" x1="-13.548" x2="1514.642" xlink:href="#b" y1="21.947" y2="21.947"/><linearGradient id="aE" gradientUnits="userSpaceOnUse" x1="-13.547" x2="1514.642" xlink:href="#b" y1="19.65" y2="19.65"/><linearGradient id="aF" gradientUnits="userSpaceOnUse" x1="-13.548" x2="1514.632" xlink:href="#b" y1="23.692" y2="23.692"/><linearGradient id="aG" gradientUnits="userSpaceOnUse" x1="-13.548" x2="1514.642" xlink:href="#b" y1="17.196" y2="17.196"/><linearGradient id="aH" gradientUnits="userSpaceOnUse" x1="-13.547" x2="1514.642" xlink:href="#b" y1="14.982" y2="14.982"/><linearGradient id="aI" gradientUnits="userSpaceOnUse" x1="-13.548" x2="1514.642" xlink:href="#b" y1="13.58" y2="13.58"/><linearGradient id="aJ" gradientUnits="userSpaceOnUse" x1="-13.548" x2="1514.642" xlink:href="#b" y1="18.848" y2="18.848"/><linearGradient id="aK" gradientUnits="userSpaceOnUse" x1="-13.547" x2="1514.643" xlink:href="#b" y1="141.625" y2="141.625"/><linearGradient id="aL" gradientUnits="userSpaceOnUse" x1="-13.548" x2="1514.642" xlink:href="#b" y1="154.512" y2="154.512"/><linearGradient id="aM" gradientUnits="userSpaceOnUse" x1="-13.549" x2="1514.641" xlink:href="#b" y1="181.334" y2="181.334"/><linearGradient id="aN" gradientUnits="userSpaceOnUse" x1="-13.548" x2="1514.642" xlink:href="#b" y1="121.031" y2="121.031"/><linearGradient id="aO" gradientUnits="userSpaceOnUse" x1="-13.548" x2="1514.642" xlink:href="#b" y1="148.946" y2="148.946"/><linearGradient id="aP" gradientUnits="userSpaceOnUse" x1="-13.548" x2="1514.642" xlink:href="#b" y1="138.809" y2="138.809"/><linearGradient id="aQ" gradientUnits="userSpaceOnUse" x1="-13.546" x2="1514.644" xlink:href="#b" y1="139.996" y2="139.996"/><linearGradient id="aR" gradientUnits="userSpaceOnUse" x1="-13.549" x2="1514.641" xlink:href="#b" y1="141.845" y2="141.845"/><linearGradient id="aS" gradientUnits="userSpaceOnUse" x1="-13.548" x2="1514.642" xlink:href="#b" y1="155.869" y2="155.869"/><linearGradient id="aT" gradientUnits="userSpaceOnUse" x1="-13.548" x2="1514.642" xlink:href="#b" y1="174.723" y2="174.723"/><linearGradient id="aU" gradientUnits="userSpaceOnUse" x1="-13.55" x2="1514.64" xlink:href="#b" y1="175.755" y2="175.755"/><linearGradient id="aV" gradientUnits="userSpaceOnUse" x1="-13.548" x2="1514.642" xlink:href="#b" y1="160.635" y2="160.635"/><linearGradient id="aW" gradientUnits="userSpaceOnUse" x1="-13.547" x2="1514.642" xlink:href="#b" y1="153.825" y2="153.825"/><linearGradient id="aX" gradientUnits="userSpaceOnUse" x1="-13.548" x2="1514.642" xlink:href="#b" y1="150.994" y2="150.994"/><linearGradient id="aY" gradientUnits="userSpaceOnUse" x1="-13.548" x2="1514.642" xlink:href="#b" y1="158.253" y2="158.253"/><linearGradient id="aZ" gradientUnits="userSpaceOnUse" x1="-13.548" x2="1514.642" xlink:href="#b" y1="152.777" y2="152.777"/><linearGradient id="a0" gradientUnits="userSpaceOnUse" x1="-13.546" x2="1514.644" xlink:href="#b" y1="96.605" y2="96.605"/><linearGradient id="a1" gradientUnits="userSpaceOnUse" x1="-13.552" x2="1514.637" xlink:href="#b" y1="95.919" y2="95.919"/><linearGradient id="a2" gradientUnits="userSpaceOnUse" x1="-13.548" x2="1514.642" xlink:href="#b" y1="94.561" y2="94.561"/><linearGradient id="a3" gradientUnits="userSpaceOnUse" x1="-13.548" x2="1514.642" xlink:href="#b" y1="99.431" y2="99.431"/><linearGradient id="a4" gradientUnits="userSpaceOnUse" x1="-13.548" x2="1514.632" xlink:href="#b" y1="75.706" y2="75.706"/><linearGradient id="a5" gradientUnits="userSpaceOnUse" x1="-13.548" x2="1514.642" xlink:href="#b" y1="81.084" y2="81.084"/><linearGradient id="a6" gradientUnits="userSpaceOnUse" x1="-13.548" x2="1514.642" xlink:href="#b" y1="119.699" y2="119.699"/><linearGradient id="a7" gradientUnits="userSpaceOnUse" x1="-13.548" x2="1514.642" xlink:href="#b" y1="92.177" y2="92.177"/><linearGradient id="a8" gradientUnits="userSpaceOnUse" x1="-13.548" x2="1514.642" xlink:href="#b" y1="94.276" y2="94.276"/><linearGradient id="a9" gradientUnits="userSpaceOnUse" x1="-13.548" x2="1514.642" xlink:href="#b" y1="111.621" y2="111.621"/><linearGradient id="ba" gradientUnits="userSpaceOnUse" x1="-13.548" x2="1514.642" xlink:href="#b" y1="101.483" y2="101.483"/><linearGradient id="bb" gradientUnits="userSpaceOnUse" x1="-13.548" x2="1514.642" xlink:href="#b" y1="110.433" y2="110.433"/><linearGradient id="bc" gradientUnits="userSpaceOnUse" x1="-13.548" x2="1514.642" xlink:href="#b" y1="115.28" y2="115.28"/><linearGradient id="bd" gradientUnits="userSpaceOnUse" x1="-13.548" x2="1514.642" xlink:href="#b" y1="108.585" y2="108.585"/><linearGradient id="be" gradientUnits="userSpaceOnUse" x1="-13.548" x2="1514.642" xlink:href="#b" y1="108.804" y2="108.804"/><path d="m0 0h1500v250h-1500z" fill="none"/><path d="m0 0h1500v250h-1500z" fill="url(#a)"/><path d="m1471.12 233.677c-132.1-.135-260.22-.497-390.79-.736-31.42-.058-75.95-.134-96.919-.016-181.958 1.03-661.753 1.132-823.244.258 324.868-.394 669.343-.812 1013.823-1.231-3.51-.192-7.03-.385-10.55-.579-387.797-.134-775.536-.287-1163.44-.378v4.477h722.593c.501-.06.991-.118 1.492-.177-135.415-.247-270.842-.494-406.258-.74-.286-.112-.573-.224-.871-.336h1183.044v-.517c-9.65-.007-19.28-.016-28.88-.025z" fill="url(#c)"/><path d="m1419.11 231.74c28.77.01 55.69.02 80.89.028v-.376c-22.62.098-44.21.191-80.89.348z" fill="url(#d)"/><path d="m1068.21 230.356c-2.33.132-4.66.265-7 .398 142.81.147 285.62.294 438.79.452v-.85c-143.93 0-287.86 0-431.79 0z" fill="url(#e)"/><path d="m1282.99 225.749c-154.84-.069-309.77-.127-464.519-.207-156.55-.081-312.933-.182-516.862-.303h989.621c-2.75.17-5.49.34-8.24.51zm-1282.99-1.117v1.231h414.672c.644.159 1.312.317 1.957.475-51.364.103-102.74.206-154.116.31 1.122.185 2.244.373 3.354.559 225.397 0 505.525.655 664.187-.143 194.956-.981 382.336-.888 569.946-.715v-2.597c-500.313.253-1000.111.572-1500 .88" fill="url(#f)"/><path d="m1375.34 226.54c.75.133 1.5.264 2.26.397h122.4v-.397c-41.55 0-83.11 0-124.66 0z" fill="url(#g)"/><path d="m1239.87 222.241c-354.974-.033-709.915-.155-1064.559-.29-58.696-.022-116.99-.099-175.311-.179v1.131h1156.39c-369.234.273-739.284.402-1108.904.583-15.879.009-31.695.024-47.486.042v.509c24.466-.078 49.109-.133 74.099-.144 235.124-.116 474.329.126 707.269-.083 241.332-.217 479.772-.629 718.632-1.011v-.739c-86.77.098-173.52.188-260.13.181z" fill="url(#h)"/><path d="m0 239.237c110.729-.103 221.454-.204 332.184-.306-110.718-.046-222.139-.182-332.184-.26z" fill="url(#i)"/><path d="m926.796 235.411c191.314.146 377.964.288 573.204.437v-.8c-188.3.105-378.24.24-573.204.363z" fill="url(#j)"/><path d="m1378.44 236.71c-158.2-.142-313.63-.691-470.106-.688-302.822.009-605.595.124-908.334.245v.697c505.622.24 1003.31.476 1500 .712v-.911c-40.72-.005-81.29-.02-121.56-.055z" fill="url(#k)"/><path d="m6.146 238.065c2.125.14 4.261.279 6.385.419h1445.009c.51.183 1.04.365 1.55.548-256.4 0-512.806 0-769.208 0 .096.129.191.257.286.387 269.937.148 539.882.296 809.832.444v-1.798c-497.96 0-995.906 0-1493.854 0z" fill="url(#l)"/><path d="m398.513 199.337h1066.447c-2.33-.298-4.65-.596-6.97-.894-353.2.147-706.397.291-1059.596.438.047.152.083.303.119.456z" fill="url(#m)"/><path d="m423.36 191.003c-141.117-.145-282.238-.292-423.36-.437v2.066c270.792.096 541.584.192 812.373.287.895-.174 1.802-.347 2.697-.523-239.265 0-478.53 0-717.796 0-.107-.14-.214-.281-.321-.422h521.11c-.537-.128-1.062-.257-1.599-.386-171.85 0-343.712 0-515.561 0-.359-.127-.728-.254-1.087-.381h327.184c-1.206-.068-2.423-.136-3.64-.204z" fill="url(#n)"/><path d="m751.76 199.808c-250.586-.13-501.174-.26-751.76-.39v.765c248.366.323 500.127.007 751.76-.375z" fill="url(#o)"/><path d="m395.446 194.629c-1.396-.193-2.793-.387-4.189-.579-130.417.049-260.837.097-391.257.146v.698c131.815-.087 263.631-.177 395.446-.265z" fill="url(#p)"/><path d="m0 188.124v.913c71.645.015 145.103.089 216.83.379-77.965.047-148.902.091-216.83.133v.625c303.696-.171 607.397-.341 911.091-.514-.692-.121-1.372-.244-2.065-.366-170.919 0-341.85 0-512.769 0 2.208-.194 4.404-.388 6.612-.581 368.492.296 736.971.592 1097.131.883v-.9c-500.064-.192-993.462-.38-1500-.572z" fill="url(#q)"/><path d="m786.309 219.693h289.221l-.07.234c-48.53.102-97.037.204-145.561.306 1.85.111 3.7.223 5.549.334h411.792c-77.73.248-128.88.411-180.02.572 113.41.167 223.81.253 332.78.282v-1.605c-218.23-.953-475.44-.168-713.691-.123z" fill="url(#r)"/><path d="m1144.79 190.587c115.38.287 233.91.582 355.21.884v-1.162c-120.28-.119-248.88-.042-355.21.278z" fill="url(#s)"/><path d="m539.466 195.59c-.43.028-.86.054-1.278.082 320.594.166 641.202.333 961.812.5v-.582c-320.18 0-640.356 0-960.534 0z" fill="url(#t)"/><path d="m1333.33 187.042c-312.77 0-625.547 0-938.326 0 .156.122.311.244.466.365h938.97c-.37-.121-.74-.243-1.11-.365z" fill="url(#u)"/><path d="m1179.13 217.989c-1.11.189-2.23.38-3.34.57 108.07.078 216.14.157 324.21.237v-1.115c-106.99.098-213.89.211-320.87.308z" fill="url(#v)"/><path d="m50.111 215.062c0 .178-.011.356-.011.535h1449.9v-.535c-483.29 0-966.586 0-1449.889 0z" fill="url(#w)"/><path d="m0 197.427h688.08c-69.766-.447-90.09-.577-126.667-.811 123.552-.05 217.807-.088 312.062-.127-250.579-.438-498.746-.809-749.074-1.042-41.097-.039-82.662-.064-124.401-.076v1.488c67.778-.07 135.081-.245 202.664-.361 3.735.214 7.471.427 11.206.64-71.287.034-142.58.066-213.87.101z" fill="url(#x)"/><path d="m0 204.917v.257h86.868c.836-.07 1.659-.139 2.483-.208-29.786-.016-59.567-.033-89.351-.049z" fill="url(#y)"/><path d="m687.03 214.023c-1.432-.15-2.864-.3-4.297-.45 162.112-.168 324.227-.336 486.337-.503-.93-.093-1.86-.186-2.79-.278-384.823.137-769.654.273-1166.28.415v1.773c79.087-.223 156.299-.551 235.471-.565 421.34-.073 842.979-.039 1264.529-.053v-.67c-270.99.111-541.983.22-812.97.331z" fill="url(#z)"/><path d="m356.422 212.088c235.852-.458 426.307-.827 616.762-1.196-3.151-.122-6.301-.243-9.464-.364-321.243.251-642.481.502-963.72.754v.791h230.661c-.776.148-1.539.296-2.315.444-76.113 0-152.23 0-228.346 0v.119h1500v-1.142c-366.4.755-744.192.59-1143.578.594z" fill="url(#A)"/><path d="m1350.36 216.573c19.63-.227 45.77-.307 70.85-.403 2.47-.01-1.4-.119-.94-.088-370.06 0-738.456 0-1106.847 0-2.553.08-5.107.16-7.673.241 76.223.17 152.445.34 228.667.511-.906.071-1.813.142-2.72.212-176.063 0-352.142 0-531.697 0v4c241.645.119 483.291.238 724.932.355 1.982-.167 3.962-.334 5.943-.501-162.768-.21-325.547-.419-488.315-.628 2.386-.117 4.773-.235 7.16-.353 154.88-.276 309.759-.554 464.639-.831-1.217-.184-2.423-.369-3.64-.553-192.866-.165-385.743-.329-578.621-.493-1.098-.137-2.22-.272-3.318-.408 457.071-.23 914.14-.462 1371.22-.694v-.574c-49.88.068-99.76.138-149.64.207z" fill="url(#B)"/><path d="m1500 88.778c-255.17 1.029-528.743.842-803.065.716-67.809-.031-134.33-.23-255.782-.452 250.244-.322 434.052-.56 617.857-.795-3.95-.165-7.9-.33-11.84-.495-188.47 0-376.931 0-565.405 0 .346.049.68.1 1.026.149 47.271.078 94.542.157 201.172.334-248.649.089-471.072.169-683.963.245v.463c115.692-.078 230.179-.154 342.268-.229 29.608.757 55.291 1.413 60.434 1.544 220.66 0 384.144-.078 544.871.051 45.78.037 83.517.678 170.947 1.445 160.75.039 284.9.07 381.48.082v-.355c-110.48.039-214.97-.148-305.13-.968 101.72-.132 203.43-.262 305.13-.394z" fill="url(#C)"/><path d="m1500 70.911v-1.248c-169.52 0-343.35 0-533.523 0 176.333.095 304.243.163 432.153.231-.94.017-1.9.034-2.84.052-465.263 0-930.526 0-1395.79 0v1.693c278.193.131 528.396.25 778.611.368 2.172.158 4.344.317 6.529.475-198.081.195-396.413.536-594.136.515-59.281-.005-117.914-.393-191.004-.842v1.254c306.479.201 608.755.4 911.02.599-.239.073-.466.148-.705.221-64.599.084-129.197.167-193.784.251 1.599.043 3.198.086 4.797.13 259.561.111 519.122.223 778.672.334v-1.832c-43.69 0-87.39 0-131.08 0 .72-.086 1.45-.172 2.18-.257h128.9v-1.402c-222.84 0-445.68 0-668.509 0 .024-.18.048-.361.072-.542z" fill="url(#D)"/><path d="m1500 60.255c-304.02.171-608.024.342-912.046.513.692.123 1.372.246 2.064.368h512.772c-2.2.194-4.41.388-6.61.582-368.163-.297-736.324-.593-1096.18-.883v.899c500.054.192 993.452.379 1500 .573v-.915c-71.95-.013-145.74-.087-217.79-.377 78.33-.048 149.57-.093 217.79-.135z" fill="url(#E)"/><path d="m1500 119.291c-226.76-.118-485.72-.254-769.53-.402 213.667-.216 390.84-.396 561.88-.57-430.786 0-861.568 0-1292.35 0v.873c155.559.279 310.85.485 467.122.623 322.636.284 648.288.363 972.638.531 1.87.062 3.74.125 5.62.187-152.69.088-305.37.176-458.067.264-1.335.114-2.672.228-4.009.342 140.536.108 281.096.216 421.626.322 0 .118-.01.234-.02.352-468.301 0-936.604 0-1404.91 0v1.407c53.716-.003 107.528-.013 160.251.001 212.532.059 425.626-.012 638.35.022 201.699.032 403.229.128 604.829.196-.99.205-1.98.411-2.96.616-466.827 0-933.65 0-1400.47 0v.692c499.995.005 999.996.004 1500 .003v-2.089c-297.65.562-597.173-.169-885.203-.014 289.781-.195 580.163-.389 885.203-.594z" fill="url(#F)"/><path d="m1398.05 118.213c-35.11.036-70.33.071-105.7.106h101.16c1.52-.034 3.02-.07 4.54-.106z" fill="url(#G)"/><path d="m1500 97.123c-323.22.154-646.446.308-969.664.461-.322.2-.644.398-.979.597h970.643v-.208c-47.57-.128-95.14-.257-142.71-.385l-.05-.216h142.76z" fill="url(#H)"/><path d="m1500 103.589v-.329c-512.125-.234-1159.096.401-1364.644 1.322 19.011.082 37.318.159 55.648.238-4.128.14-8.258.281-12.387.421-59.538 0-119.079 0-178.617 0v.636c174.456.115 348.911.231 523.367.346-.597.075-1.194.151-1.79.225-171.626 0-343.261 0-521.577 0v.559c526.407-.399 1011.22 1.056 1500 .692v-.772c-91.71 0-183.46.009-275.16.009.56-.143 1.11-.287 1.67-.43h273.49v-.443c-283.86 0-553.551 0-823.233 0-2.28-.048-4.559-.096-6.85-.146 35.813-.075 71.616-.15 107.43-.224 1.169-.1 2.363-.202 3.532-.302-140.654-.061-281.309-.123-421.963-.184 1.336-.145 2.673-.291 4.01-.435h1137.074v-.713c-116.12 0-230.38 0-344.63 0 3.17-.156 6.35-.312 9.53-.47z" fill="url(#I)"/><path d="m1500 67.161v-3.029c-327.52.085-667.998.711-749.326 1.66h499.306c-.73.169-1.47.338-2.19.508-415.933 0-831.862 0-1247.79 0v.464h373.249c-.084.123-.179.247-.263.369-124.326 0-248.656 0-372.986 0v.457h1500v-.084c-43.87-.034-92.83-.072-141.8-.11 1.29-.105 2.58-.209 3.85-.313 45.87.026 91.74.051 137.95.078z" fill="url(#J)"/><path d="m1500 53.002c-216.8 0-440.21 0-689.035 0 69.766.448 90.09.578 126.68.813-123.566.05-217.82.087-312.075.125 250.578.439 498.75.81 749.07 1.044 41.42.038 83.3.063 125.36.075v-1.49c-68.11.069-135.72.247-203.62.362-3.73-.213-7.47-.426-11.22-.64 71.62-.032 143.23-.066 214.84-.1z" fill="url(#K)"/><path d="m1500 37.912v-.118c-499.38 0-998.902 0-1500 0v1.139c366.099-.753 743.588-.587 1142.62-.591-235.849.458-426.304.826-616.759 1.197 3.151.121 6.313.242 9.464.363 321.558-.251 643.115-.503 964.675-.755v-.79c-77.21 0-154.41 0-231.62 0 .78-.149 1.55-.296 2.32-.445z" fill="url(#L)"/><path d="m1500 8.382c-254.66.141-509.315.282-763.969.424-3.461.099-6.91.198-10.371.297 258.113.129 516.23.259 774.34.387v-.372c-47.11-.017-94.22-.035-141.34-.054-.22-.071-.45-.142-.69-.213 47.35-.02 94.69-.04 142.03-.059z" fill="url(#M)"/><path d="m1500 26.901v-.511c-24.78.08-49.73.136-75.04.147-235.15.116-474.332-.127-707.284.083-241.012.217-479.129.628-717.676 1.009v.74c86.447-.098 172.883-.187 259.171-.18 354.978.033 709.92.154 1064.559.289 59.02.023 117.63.1 176.27.181v-1.133c-394.89 0-776.12 0-1157.35 0 369.239-.271 739.29-.401 1108.91-.583 16.2-.008 32.33-.023 48.44-.042z" fill="url(#N)"/><path d="m1500 45.513v-.257c-29.34 0-58.59 0-87.83 0-.82.069-1.65.139-2.48.208 30.1.016 60.21.033 90.31.049z" fill="url(#O)"/><path d="m892.725 49.098-.215.001c-.573.005-1.086.011-1.659.016z" fill="url(#P)"/><path d="m1500 40.294c-240.61 0-481.04 0-720.888 0 10.896.429 22.341.878 38.572 1.517-287.584 0-552.86 0-817.684 0v1.834h512.757c-1.456.146-2.911.291-4.367.437-168.562 0-337.132 0-508.39 0v1.503h47.582c-17.668.052-33.411.098-47.582.139v.617c268.709.551 533.688 1.094 798.661 1.638-4.429.229-8.855.458-13.271.687-183.187 0-366.35 0-549.537 0-.717.059-1.421.118-2.137.178 66.509.072 133.029.144 199.549.215-.728.066-1.456.132-2.196.198-142.82 0-285.647 0-431.069 0v.685c108.979.096 214.229.276 317.075.214 194.167-.115 383.834-.684 575.435-1.057 34.93-.311 63.489-.766 106.976-.881 88.244-.232 184.964-.27 278.184-.387-1.86-.119-3.74-.239-5.61-.358-68.86-.117-137.72-.233-206.58-.35 1.96-.114 3.9-.229 5.86-.343h428.66v-.974c-177.71-.273-355.42-.546-533.117-.819-1.671-.076-3.342-.151-5.013-.226 179.37-.189 358.75-.379 538.13-.567v-1.336c-30.85-.047-61.69-.093-92.54-.139.97-.113 1.94-.227 2.89-.34h89.65v-.596c-58.23 0-116.46 0-174.69 0-.96-.178-1.92-.357-2.88-.536 59.19-.087 118.38-.176 177.57-.263z" fill="url(#Q)"/><path d="m0 201.523c197.151.139 395.437.142 596.582-.195-199.046-.162-397.852-.324-596.582-.489z" fill="url(#R)"/><path d="m596.582 201.328c3.055.003 6.098.004 9.153.006.468-.003 1.747-.012 2.245-.017l-1.66.014h.203c.573-.004 1.098-.011 1.67-.016-3.89.007-7.721.007-11.611.013z" fill="url(#S)"/><path d="m1500 183.295v-.456c-509.201 0-1014.644 0-1500 0v.085c43.628.034 92.236.072 140.858.11-1.289.105-2.578.209-3.867.313-45.554-.025-91.108-.052-136.991-.077v3.026c327.228-.085 667.122-.71 748.371-1.658-180.825 0-340.072 0-499.308 0 .729-.169 1.468-.338 2.208-.507h1248.729v-.465c-124.73 0-249.47 0-374.2 0 .08-.123.17-.247.26-.371z" fill="url(#T)"/><path d="m1500 201.173v-.685c-109.32-.096-214.88-.276-318.02-.215-194.177.116-383.856.685-575.457 1.058-34.931.311-63.477.765-106.964.881-88.229.232-184.966.27-278.183.387 1.874.12 3.736.239 5.609.357 68.86.118 137.719.234 206.59.35-1.957.116-3.914.229-5.871.343-142.345 0-284.694 0-427.704 0v.976c177.388.273 354.778.545 532.162.818 1.671.075 3.354.151 5.025.226-179.063.189-358.125.377-537.187.566v1.337c30.527.047 61.055.093 91.582.139-.967.113-1.921.225-2.888.34-29.566 0-59.129 0-88.694 0v.596h173.748c.955.178 1.909.357 2.864.536-58.871.087-117.741.175-176.612.261v.691h719.932c-10.896-.428-22.328-.877-38.571-1.516h818.639v-1.835c-171.24 0-342.47 0-513.713 0 1.456-.146 2.912-.29 4.368-.436h509.345v-1.504c-15.69 0-31.85 0-48.54 0 18.07-.053 34.12-.099 48.54-.141v-.612c-269.04-.552-534.329-1.096-799.616-1.639 4.428-.23 8.855-.459 13.283-.688h549.523c.71-.06 1.42-.118 2.14-.179-66.52-.071-133.03-.143-199.55-.214.73-.067 1.47-.131 2.2-.198z" fill="url(#U)"/><path d="m1500 178.282v-1.261c-306.81-.201-609.39-.4-911.975-.599.239-.073.477-.147.704-.221 64.599-.084 129.186-.167 193.785-.251-1.599-.043-3.199-.087-4.798-.13-259.241-.112-518.477-.222-777.716-.334v1.831h130.141c-.74.085-1.468.173-2.196.258-42.149 0-84.3 0-127.945 0v1.401h667.554c-.024.181-.048.362-.072.543-222.491 0-444.987 0-667.482 0v1.248h532.568c-176.325-.094-304.246-.163-432.155-.231.943-.017 1.898-.035 2.84-.052h1396.747v-1.691c-278.57-.133-529.067-.252-779.555-.37-2.184-.158-4.368-.317-6.54-.476 198.081-.194 396.425-.535 594.145-.514 59.53.006 118.41.396 191.95.849z" fill="url(#V)"/><path d="m1500 227.307c-500 .257-1000.001.514-1500 .772v.34h1299.41c-371.17.609-751.674-.018-1117.857.675 1.134.188 2.267.377 3.413.564h1315.034v-.098c-60.44 0-120.88 0-181.33 0-.84-.245-1.69-.49-2.53-.736 61.29-.043 122.57-.087 183.86-.13z" fill="url(#W)"/><path d="m1500 130.866v-.27c-41 .049-82 .098-123 .146-2.07.042-4.15.083-6.21.124z" fill="url(#X)"/><path d="m1340.38 129.058c-2.09.134-4.16.266-6.25.399 55.29.093 110.58.188 165.87.283v-.682c-53.52 0-106.57 0-159.62 0z" fill="url(#Y)"/><path d="m1500 126.375v-.693c-500.006-.004-1000.004-.003-1500-.002v2.087c297.333-.56 596.519.171 884.236.017-289.475.193-579.545.387-884.236.591v2.764c226.535.118 485.161.253 768.575.402-213.631.216-390.791.395-561.806.569h1293.231v-.87c-155.88-.281-311.49-.487-468.08-.625-322.622-.284-648.289-.363-972.631-.531-1.874-.063-3.748-.125-5.621-.187 152.684-.088 305.367-.176 458.051-.265 1.349-.113 2.685-.227 4.034-.342-140.559-.108-281.094-.215-421.641-.323 0-.116.012-.233.012-.35h1405.876v-1.408c-54.03.003-108.17.014-161.21-.001-212.53-.059-425.623.013-638.347-.021-201.696-.032-403.226-.128-604.815-.196.979-.206 1.969-.411 2.959-.616z" fill="url(#Z)"/><path d="m1500 167.089v-1.922c-242.3-.285-483.1-.554-728.478.034 122.826.359 238.228.698 353.618 1.035-7.39.153-14.79.306-22.19.46-315.126-.507-648.645.65-960.314-1.114-37.057-.21-86.729-.286-142.636-.295v5.388c72.576.111 144.996.341 215.195.537 56.03.158 104.53.657 157.564.668 311.597.066 623.529.032 935.341.032-.17.13-.32.259-.49.388-354.989 0-709.99 0-1064.979 0-1.122.122-2.244.246-3.365.368 419.081.39 838.174.78 1260.734 1.173v-3.017c-410.36 0-817.232 0-1224.085 0 .107-.194.203-.387.298-.581h984.057c-.24-.179-.48-.358-.72-.537-337.205-.204-674.413-.405-1027.564-.618 28.689-.36 46.686-.586 72.391-.909-76.664-.036-146.478-.069-216.28-.1 462.771-1.406 936.943-1.15 1411.903-.99z" fill="url(#aa)"/><path d="m100.998 132.217c35.134-.035 70.375-.072 105.771-.107-33.749 0-67.487 0-101.236 0-1.504.035-3.019.072-4.535.107z" fill="url(#ab)"/><path d="m1500 154.529c-49.54-.01-100.02-.038-147.86-.034-174.47.017-353.155-.182-522.128.053-122.205.17-231.544.897-340.144 1.347 5.346.033 27.962.174 63.692.396-198.16 0-377.327 0-553.56 0v1.582c156.807-.04 313.746-.057 470.63-.074 154.355-.016 308.757-.003 511.814-.003-92.381-.226-140.236-.343-192.28-.469 91.239-.932 105.325-1.075 709.836-.608v-.603c-177.32 0-354.65 0-531.972 0-.036-.162-.071-.323-.095-.485h532.067z" fill="url(#ac)"/><path d="m1500 133.454c-205.26 0-410.52 0-615.772 0-.609.075-1.206.147-1.814.22h573.916c-140.15.486-279.64.601-419.37.623-345.633.052-691.478.041-1036.96.12v1.065h523.605c-70.542.572-120.497.978-167.876 1.363 386.264-.27 765.971-.535 1144.271-.8v-.838c-286.65 0-573.309 0-859.954 0 290.154-.199 575.924-.422 859.954-.672z" fill="url(#ad)"/><path d="m1500 143.981v-.56c-526.428.402-1011.251-1.053-1500-.691v.773c91.387 0 182.824-.009 274.208-.009-.561.144-1.109.286-1.67.43-90.853 0-181.704 0-272.538 0v.441h822.278c2.28.05 4.559.099 6.838.148-35.802.074-71.604.15-107.406.223-1.193.101-2.363.203-3.556.303 140.666.061 281.321.123 421.976.183-1.34.145-2.67.291-4.01.436-368.197 0-736.406 0-1136.12 0v.714h343.688c-3.186.155-6.373.312-9.547.468-111.38 0-222.761 0-334.141 0v.33c511.974.234 1158.27-.402 1363.69-1.322-19-.082-37.33-.159-55.64-.237 4.13-.141 8.25-.282 12.38-.422h179.57v-.636c-174.77-.115-349.54-.231-524.311-.346.585-.074 1.182-.151 1.779-.226z" fill="url(#ae)"/><path d="m902.415 49.102c199.375.163 398.515.325 597.585.489v-.684c-197.48-.139-396.1-.142-597.585.195z" fill="url(#af)"/><path d="m1263.59 36.015c-421.037.073-842.356.039-1263.59.053v.669c270.672-.11 541.346-.219 812.015-.33 1.444.15 2.876.3 4.308.451-162.124.167-324.235.334-486.359.502.943.093 1.874.185 2.805.278 385.127-.137 770.271-.274 1167.231-.415v-1.777c-79.42.224-156.93.554-236.41.569z" fill="url(#ag)"/><path d="m890.862 49.115c3.867-.007 7.674-.007 11.553-.013-3.043-.002-6.062-.004-9.094-.008-.596.004-2.459.021-2.459.021z" fill="url(#ah)"/><path d="m468.422 74.717c-1.909-.116-3.818-.233-5.716-.349-154.235 0-308.471 0-462.706 0v.612c43.597-.101 87.34-.193 131.883-.238 110.414-.112 224.217-.025 336.539-.025z" fill="url(#ai)"/><path d="m747.297 50.621c250.895.131 501.803.261 752.703.391v-.764c-248.67-.325-500.758-.009-752.703.373z" fill="url(#aj)"/><path d="m1448.95 34.833c-482.983 0-965.965 0-1448.95 0v.536h1448.92c.01-.179.03-.358.03-.536z" fill="url(#ak)"/><path d="m774.101 29.028c-1.982.168-3.963.335-5.932.503 162.769.208 325.551.418 488.331.627-2.39.117-4.79.235-7.18.352-154.87.278-309.755.555-464.634.832 1.205.184 2.422.369 3.639.553 192.866.165 385.745.33 578.605.493 1.13.136 2.22.272 3.35.408-456.765.23-913.521.462-1370.28.693v.574c49.562-.068 99.126-.137 148.687-.207-19.632.228-45.756.308-70.865.404-2.458.009 1.408.119.955.087h1106.843c2.55-.079 5.12-.159 7.67-.239-76.22-.171-152.44-.341-228.651-.513.895-.07 1.801-.141 2.697-.211h532.664v-4c-241.97-.118-483.93-.237-725.899-.356z" fill="url(#al)"/><path d="m0 68.7v.791h574.54c.19-.18.394-.358.597-.537-191.712-.085-383.338-.196-575.137-.254z" fill="url(#am)"/><path d="m0 54.839h959.579c.43-.027.859-.053 1.288-.08-320.296-.167-640.574-.334-960.867-.501z" fill="url(#an)"/><path d="m1103.6 55.801c1.4.193 2.79.386 4.18.58 130.74-.05 261.48-.098 392.22-.148v-.698c-132.13.088-264.27.178-396.4.266z" fill="url(#ao)"/><path d="m319.916 32.44c1.122-.19 2.231-.379 3.341-.569-107.752-.078-215.505-.157-323.257-.236v1.113c106.668-.097 213.243-.21 319.916-.308z" fill="url(#ap)"/><path d="m1103.57 63.023c-312.989 0-625.97 0-938.964 0 .371.121.74.243 1.098.365h938.336c-.16-.122-.31-.244-.47-.365z" fill="url(#aq)"/><path d="m1100.52 51.093c-355.479 0-710.957 0-1066.436 0 2.327.298 4.643.596 6.981.894 353.187-.146 706.387-.292 1059.585-.438-.03-.152-.08-.304-.13-.456z" fill="url(#ar)"/><path d="m686.672 57.511c-.907.174-1.802.348-2.697.522h717.795c.11.141.22.282.32.422-173.7 0-347.41 0-521.109 0 .526.129 1.075.257 1.6.387h515.559c.36.126.73.254 1.09.381-109.06 0-218.12 0-327.19 0 1.22.068 2.43.136 3.64.204 141.44.145 282.88.292 424.32.437v-2.067c-271.11-.095-542.225-.191-813.328-.286z" fill="url(#as)"/><path d="m354.25 59.843c-115.071-.287-233.284-.581-354.25-.882v1.161c120.01.118 248.209.04 354.25-.279z" fill="url(#at)"/><path d="m0 29.008v1.609c218.022.948 474.828.165 712.735.121-96.402 0-192.805 0-289.22 0l.071-.235c48.524-.103 97.036-.204 145.56-.305-1.85-.112-3.7-.224-5.55-.335-128.553 0-257.118 0-411.783 0 77.727-.248 128.864-.411 180.013-.574-113.083-.166-223.163-.251-331.826-.281z" fill="url(#au)"/><path d="m1492.91 12.364c-2.14-.139-4.27-.278-6.4-.419-481.67 0-963.334 0-1444.991 0-.525-.182-1.05-.365-1.575-.547h769.218c-.096-.129-.19-.259-.286-.387-269.629-.148-539.25-.296-808.876-.445v1.798z" fill="url(#av)"/><path d="m1235.18 7.597c-382.315 0-793.036 0-1138.586 0 345.92 1.019 756.748 1.442 1138.586 0z" fill="url(#aw)"/><path d="m0 9.823c107.712-.162 215.425-.324 323.138-.485-1.122-.1-2.244-.199-3.354-.3-105.747 0-211.506 0-319.784 0z" fill="url(#ax)"/><path d="m1166.86 11.499c111.04.045 222.78.182 333.14.261v-.568c-111.05.103-222.09.205-333.14.307z" fill="url(#ay)"/><path d="m875.026 2.73c1.706.219 3.425.437 5.132.655h619.842v-.655c-208.32 0-416.65 0-624.974 0z" fill="url(#az)"/><path d="m847.363 1.001c-49.824.148-89.731.265-174.702.515h300.367c9.5-.393 17.388-.72 25.288-1.046 34.754.184 66.764.472 104.784.532 107.48.17 233.44.594 301.87-1.002h-177.83c-166.31.25-318.384.478-470.44.708 27.843.09 55.685.18 90.663.293z" fill="url(#aA)"/><path d="m216.042 24.681c154.856.068 309.783.127 464.531.207 156.551.081 312.922.182 516.847.303-362.695 0-676.142 0-989.588 0 2.732-.171 5.477-.34 8.21-.51zm868.338-.114c-.66-.159-1.31-.317-1.96-.476 51.36-.103 102.74-.205 154.1-.308-1.11-.187-2.22-.375-3.34-.56-225.41 0-505.527-.655-664.189.143-194.627.979-381.702.888-568.991.716v2.595c500.307-.253 1000.11-.572 1500-.879v-1.231c-138.54 0-277.08 0-415.62 0" fill="url(#aB)"/><path d="m1442.62 4.819c-307.49.057-615.568.163-922.523.071-173.972-.052-348.097-.481-520.097-.558v1.802h1500v-1.345c-19.16.015-38.3.026-57.38.03z" fill="url(#aC)"/><path d="m199.633 22.011c371.172-.609 751.687.018 1117.857-.675-1.13-.188-2.27-.376-3.4-.564-438.036 0-876.062 0-1314.09 0v.098h180.371c.848.244 1.695.49 2.542.736-60.974.043-121.943.086-182.913.13v1.387c499.999-.258 1000-.514 1500-.772v-.34c-433.46 0-866.918 0-1300.367 0z" fill="url(#aD)"/><path d="m430.831 20.074c2.338-.132 4.678-.265 7.017-.398-142.521-.147-285.038-.293-437.848-.451v.848c143.61 0 287.231.001 430.831.001z" fill="url(#aE)"/><path d="m0 23.493v.397h123.709c-.752-.133-1.504-.264-2.256-.397-40.486 0-80.968 0-121.453 0z" fill="url(#aF)"/><path d="m776.439 14.957c-.489.059-.978.119-1.479.179 135.427.246 270.84.493 406.26.739.28.112.57.224.86.336-394.022 0-788.052 0-1182.08 0v.518c9.323.007 18.632.015 27.914.024 132.11.135 260.233.497 390.803.736 31.423.058 75.949.134 96.916.015 181.958-1.029 661.767-1.13 823.247-.257-324.87.393-669.345.812-1013.821 1.23 3.521.193 7.029.387 10.55.58 388.11.134 776.171.287 1164.391.378v-4.478c-234.14 0-478.84 0-723.561 0z" fill="url(#aG)"/><path d="m0 15.381c187.99-.105 377.609-.241 572.249-.362-190.999-.146-377.359-.288-572.249-.437z" fill="url(#aH)"/><path d="m0 12.754v.91c40.399.006 80.646.021 120.594.057 158.221.143 313.637.69 470.116.686 303.142-.007 606.23-.124 909.29-.245v-.695c-505.631-.24-1003.314-.477-1500-.713z" fill="url(#aI)"/><path d="m0 19.033c22.282-.095 43.774-.187 79.946-.343-28.413-.01-55.02-.02-79.946-.027z" fill="url(#aJ)"/><path d="m1058.73 141.159c-352.909 0-705.82 0-1058.73 0v.933c354.06-.191 708.129-.383 1062.19-.573-1.15-.12-2.31-.241-3.46-.36z" fill="url(#aK)"/><path d="m115.737 154.731c-39.813-.15-67.702-.255-115.737-.436v.436z" fill="url(#aL)"/><path d="m924.517 180.94c-.203.178-.406.357-.609.536 192.032.085 383.972.196 576.092.254v-.79c-191.83 0-383.67 0-575.483 0z" fill="url(#aM)"/><path d="m158.663 121.371c2.088-.133 4.165-.265 6.254-.398-54.971-.093-109.946-.187-164.917-.281v.679z" fill="url(#aN)"/><path d="m0 148.042v1.808h1115.99c-133.856-.291-268.83-.235-402.634-.308-124.209-.067-247.189-.273-370.706-.418 1.563-.153 3.139-.306 4.714-.46h1152.636v-.622c-500.679 0-1001.109 0-1500 0z" fill="url(#aO)"/><path d="m0 137.429v2.759h519.488c.609-.033 1.205-.065 1.826-.096-110.939 0-221.877 0-332.816 0 70.924-.516 148.256-.692 227.105-.758 164.474-.135 329.736-.213 494.676-.314-292.49 0-584.981 0-898.452 0 118.445-.941 423.622-1.098 1160.683-.749-94.9.282-181.711.539-268.877.798 198.627-.03 397.497-.087 596.367-.105v-1.535c-507.818 0-1005.857 0-1500 0z" fill="url(#aP)"/><path d="m1028.61 139.814c-1.75.122-3.49.243-5.23.366h476.62v-.366c-157.13 0-314.26 0-471.39 0z" fill="url(#aQ)"/><path d="m1366.79 141.028c-124.85.544-209.79.914-294.26 1.283 135.99.112 273.98.225 427.47.351v-1.634c-48.69 0-93.79 0-133.21 0z" fill="url(#aR)"/><path d="m279.793 155.966c-1.3-.065-2.601-.128-3.902-.194-91.762 0-183.531 0-275.891 0v.194z" fill="url(#aS)"/><path d="m529.895 174.312c344.782 1.341 661.235.737 970.105.304v-.304c-309.05 0-625.729 0-970.105 0z" fill="url(#aT)"/><path d="m1367.16 175.688c-110.41.112-224.21.025-336.53.025 1.9.116 3.81.233 5.71.348h463.66v-.613c-43.91.102-87.97.195-132.84.24z" fill="url(#aU)"/><path d="m1156.78 161.716c-29.61-.757-55.28-1.414-60.44-1.545-220.657 0-384.153.079-544.857-.05-45.802-.037-83.526-.678-170.955-1.445-160.227-.04-284.088-.069-380.528-.083v.356c110.125-.039 214.274.151 304.175.968-101.405.131-202.792.261-304.175.392v1.339c254.909-1.025 528.133-.838 802.109-.713 67.81.032 134.341.231 255.781.453-250.243.322-434.051.558-617.858.794 3.95.166 7.888.331 11.838.495h565.41c-.35-.049-.68-.098-1.01-.148-47.288-.078-94.558-.157-201.188-.334 249.018-.089 471.738-.169 684.918-.245v-.463c-116.02.077-230.83.154-343.22.229z" fill="url(#aV)"/><path d="m482.887 154.035c-1.265-.14-2.531-.281-3.795-.421-159.7.099-319.395.198-479.092.298v.123z" fill="url(#aW)"/><path d="m0 151.132c8.187-.087 16.759-.179 25.814-.275-7.718 0-16.403.005-25.814.011z" fill="url(#aX)"/><path d="m1070.47 158.013c-.57.096-1.16.193-1.73.29 143.75.173 287.51.345 431.26.517v-1.134c-143.23.095-286.33.224-429.53.327z" fill="url(#aY)"/><path d="m0 153.306c322.899-.153 645.799-.307 968.708-.462.322-.198.657-.397.979-.595-323.236 0-646.462 0-969.687 0v.21c47.253.128 94.504.255 141.765.383l.048.216c-47.273 0-94.542 0-141.813 0z" fill="url(#aZ)"/><path d="m1016.17 96.394c1.27.141 2.53.282 3.78.421 160.02-.098 320.03-.198 480.05-.297v-.124c-196.13 0-339.99 0-483.83 0z" fill="url(#a0)"/><path d="m1383.31 95.699c40.07.151 68.07.256 116.69.439v-.439c-37.93 0-76.75 0-116.69 0z" fill="url(#a1)"/><path d="m1219.25 94.463c1.3.064 2.62.129 3.9.194h276.85v-.194c-93.58 0-187.17 0-280.75 0z" fill="url(#a2)"/><path d="m1473.24 99.574c7.98 0 16.99-.006 26.76-.013v-.273c-8.47.09-17.35.185-26.76.286z" fill="url(#a3)"/><path d="m969.149 76.118c-344.427-1.34-660.58-.738-969.149-.305v.305z" fill="url(#a4)"/><path d="m1283.85 79.217c-56.02-.157-104.52-.656-157.56-.667-311.59-.066-623.521-.032-935.333-.032.155-.13.31-.259.477-.388h1064.996c1.11-.123 2.23-.245 3.35-.368-418.767-.39-837.541-.779-1259.78-1.172v3.016h1223.13c-.1.194-.2.387-.3.581-328.017 0-656.036 0-984.042 0 .227.178.465.358.692.537 337.208.203 674.427.405 1027.58.618-28.69.36-46.69.586-72.38.909 76.66.036 146.47.068 216.27.1-462.463 1.403-936.31 1.15-1410.95.99v1.923c241.983.284 482.479.551 727.522-.036-122.825-.358-238.227-.697-353.617-1.034 7.399-.153 14.798-.307 22.198-.46 315.129.506 648.637-.65 960.307 1.114 37.27.211 87.3.287 143.59.295v-5.387c-72.9-.11-145.64-.342-216.15-.539z" fill="url(#a5)"/><path d="m0 119.564v.269c40.684-.048 81.368-.097 122.05-.145 2.064-.042 4.129-.083 6.205-.124-42.678 0-85.359 0-128.255 0z" fill="url(#a6)"/><path d="m0 91.611v1.133c142.915-.095 285.699-.224 428.587-.327.573-.096 1.145-.193 1.718-.29-143.432-.172-286.868-.345-430.305-.516z" fill="url(#a7)"/><path d="m1028.41 92.631c-154.35.016-308.752.003-511.798.003 92.369.225 140.225.343 192.269.47-91.192.93-105.31 1.074-708.881.608v.602h531.017c.035.162.071.323.095.485-177.037 0-354.075 0-531.112 0v1.102c49.236.01 99.368.038 146.908.034 174.464-.019 353.152.182 522.125-.053 122.204-.17 231.544-.896 340.147-1.347-5.35-.033-27.964-.173-63.684-.395h554.504v-1.584c-157.13.041-314.38.058-471.59.075z" fill="url(#a8)"/><path d="m979.557 110.242c-.609.032-1.218.065-1.815.096h332.788c-70.91.516-148.24.692-227.09.756-164.473.136-329.735.215-494.675.315h898.455c-118.45.942-423.62 1.099-1160.681.749 94.887-.281 181.708-.538 268.885-.798-198.324.031-396.871.088-595.424.106v1.535h1500v-2.759c-173.48 0-346.96 0-520.443 0z" fill="url(#a9)"/><path d="m383.059 100.579c133.852.292 268.825.236 402.629.308 124.221.068 247.192.274 370.702.418-1.57.154-3.13.308-4.7.461-378.669 0-757.33 0-1151.69 0v.621h1500v-1.808c-377.84 0-747.397 0-1116.941 0z" fill="url(#ba)"/><path d="m470.439 110.616c1.743-.122 3.485-.243 5.228-.366-158.554 0-317.11 0-475.667 0v.366z" fill="url(#bb)"/><path d="m975.439 114.948c70.541-.572 120.501-.979 167.881-1.363-385.942.27-765.338.535-1143.32.8v.837h858.999c-289.827.2-575.279.422-858.999.671v1.082h614.829c.597-.074 1.193-.147 1.802-.22-191.314 0-382.616 0-573.919 0 140.153-.484 279.638-.6 419.373-.622 345.959-.053 692.115-.041 1037.915-.12v-1.065c-169.79 0-342.42 0-524.561 0z" fill="url(#bc)"/><path d="m0 107.768v1.635h132.241c124.878-.545 209.801-.915 294.269-1.282-135.706-.113-273.405-.227-426.51-.353z" fill="url(#bd)"/><path d="m436.857 108.91c1.158.121 2.303.242 3.461.361h1059.682v-.934c-354.38.192-708.766.383-1063.143.573z" fill="url(#be)"/></svg>